<svg xmlns="http://www.w3.org/2000/svg" viewBox="0 0 512 512">
  <defs>
    <linearGradient id="bg" x1="88" y1="48" x2="424" y2="472" gradientUnits="userSpaceOnUse">
      <stop stop-color="#fbfaff"/>
      <stop offset="0.5" stop-color="#f1eaff"/>
      <stop offset="1" stop-color="#e9ddff"/>
    </linearGradient>
    <linearGradient id="sweep" x1="256" y1="256" x2="404" y2="142" gradientUnits="userSpaceOnUse">
      <stop stop-color="#7c3aed"/>
      <stop offset="1" stop-color="#e879f9"/>
    </linearGradient>
    <radialGradient id="core" cx="50%" cy="48%" r="52%">
      <stop offset="0" stop-color="#ffffff"/>
      <stop offset="0.42" stop-color="#f9a8d4"/>
      <stop offset="1" stop-color="#ec4899"/>
    </radialGradient>
    <filter id="soft" x="-20%" y="-20%" width="140%" height="140%">
      <feDropShadow dx="0" dy="18" stdDeviation="22" flood-color="#6d28d9" flood-opacity="0.20"/>
    </filter>
  </defs>
  <rect width="512" height="512" rx="112" fill="url(#bg)"/>
  <g filter="url(#soft)">
    <circle cx="256" cy="256" r="190" fill="#ffffff" fill-opacity="0.28"/>
    <circle cx="256" cy="256" r="178" fill="none" stroke="#7c3aed" stroke-width="9" stroke-opacity="0.25"/>
    <circle cx="256" cy="256" r="126" fill="none" stroke="#7c3aed" stroke-width="10" stroke-opacity="0.52"/>
    <circle cx="256" cy="256" r="76" fill="none" stroke="#8b5cf6" stroke-width="12" stroke-opacity="0.78"/>
    <path d="M256 256 L256 78 A178 178 0 0 1 410 167 Z" fill="url(#sweep)" fill-opacity="0.20"/>
    <line x1="256" y1="256" x2="256" y2="78" stroke="#7c3aed" stroke-width="8" stroke-opacity="0.42"/>
    <line x1="256" y1="256" x2="410" y2="167" stroke="url(#sweep)" stroke-width="20" stroke-linecap="round"/>
    <circle cx="348" cy="132" r="34" fill="#7c3aed" fill-opacity="0.16"/>
    <circle cx="348" cy="132" r="19" fill="#a78bfa"/>
    <circle cx="140" cy="186" r="13" fill="#7c3aed" fill-opacity="0.52"/>
    <circle cx="256" cy="256" r="56" fill="#ec4899" fill-opacity="0.16"/>
    <circle cx="256" cy="256" r="34" fill="url(#core)"/>
  </g>
</svg>
